<svg width="32" height="32" viewBox="0 0 32 32" fill="none" xmlns="http://www.w3.org/2000/svg">
<g clip-path="url(#clip0_19_317)">
<path d="M5.3335 10.6666C5.3335 9.2521 5.8954 7.89554 6.89559 6.89535C7.89579 5.89515 9.25234 5.33325 10.6668 5.33325H21.3335C22.748 5.33325 24.1045 5.89515 25.1047 6.89535C26.1049 7.89554 26.6668 9.2521 26.6668 10.6666V21.3333C26.6668 22.7477 26.1049 24.1043 25.1047 25.1045C24.1045 26.1047 22.748 26.6666 21.3335 26.6666H10.6668C9.25234 26.6666 7.89579 26.1047 6.89559 25.1045C5.8954 24.1043 5.3335 22.7477 5.3335 21.3333V10.6666Z" stroke="#B5D3FF" stroke-width="2" stroke-linecap="round" stroke-linejoin="round"/>
<path d="M12 16C12 17.0609 12.4214 18.0783 13.1716 18.8284C13.9217 19.5786 14.9391 20 16 20C17.0609 20 18.0783 19.5786 18.8284 18.8284C19.5786 18.0783 20 17.0609 20 16C20 14.9391 19.5786 13.9217 18.8284 13.1716C18.0783 12.4214 17.0609 12 16 12C14.9391 12 13.9217 12.4214 13.1716 13.1716C12.4214 13.9217 12 14.9391 12 16Z" stroke="#B5D3FF" stroke-width="2" stroke-linecap="round" stroke-linejoin="round"/>
<path d="M22 10V10.0133" stroke="#B5D3FF" stroke-width="2" stroke-linecap="round" stroke-linejoin="round"/>
</g>
<defs>
<clipPath id="clip0_19_317">
<rect width="32" height="32" fill="white"/>
</clipPath>
</defs>
</svg>
