<svg width="32" height="32" viewBox="0 0 32 32" fill="none" xmlns="http://www.w3.org/2000/svg">
  <path d="M28.528 8.657c-.333-1.247-1.314-2.228-2.56-2.56C23.704 5.56 16 5.56 16 5.56s-7.704 0-9.968.537c-1.246.332-2.227 1.313-2.56 2.56C3 10.92 3 15.667 3 15.667s0 4.747.472 7.01c.333 1.247 1.314 2.228 2.56 2.56 2.264.537 9.968.537 9.968.537s7.704 0 9.968-.537c1.246-.332 2.227-1.313 2.56-2.56.472-2.263.472-7.01.472-7.01s0-4.747-.472-7.01z" stroke="#B5D3FF" stroke-width="2" stroke-linecap="round" stroke-linejoin="round"/>
  <path d="M12.8 20.111l7.467-4.444-7.467-4.445v8.889z" stroke="#B5D3FF" stroke-width="2" stroke-linecap="round" stroke-linejoin="round"/>
</svg>
